<svg width="60" height="60" viewBox="0 0 60 60" fill="none" xmlns="http://www.w3.org/2000/svg">
<g id="ant-design:user-add-outlined">
<path id="Vector" d="M39.7442 37.6406C41.1621 36.8789 42.7852 36.4453 44.5137 36.4453H44.5196C44.6953 36.4453 44.7774 36.2344 44.6485 36.1172C42.8509 34.504 40.7975 33.201 38.5723 32.2617C38.5488 32.25 38.5254 32.2441 38.502 32.2324C42.1406 29.5898 44.5078 25.2949 44.5078 20.4492C44.5078 12.4219 38.0156 5.91797 30.0059 5.91797C21.9961 5.91797 15.5098 12.4219 15.5098 20.4492C15.5098 25.2949 17.877 29.5898 21.5215 32.2324C21.4981 32.2441 21.4746 32.25 21.4512 32.2617C18.8321 33.3691 16.4824 34.957 14.461 36.9844C12.4512 38.9905 10.8511 41.3688 9.75002 43.9863C8.6667 46.5496 8.08204 49.2959 8.02737 52.0781C8.0258 52.1407 8.03677 52.2029 8.05963 52.2611C8.08248 52.3193 8.11676 52.3724 8.16045 52.4172C8.20413 52.462 8.25634 52.4975 8.31399 52.5218C8.37164 52.5461 8.43356 52.5586 8.49612 52.5586H12.0059C12.2578 52.5586 12.4688 52.3535 12.4746 52.1016C12.5918 47.5781 14.4024 43.3418 17.6074 40.1309C20.918 36.8086 25.3242 34.9805 30.0117 34.9805C33.334 34.9805 36.5215 35.9004 39.2696 37.623C39.3401 37.6674 39.4212 37.6924 39.5045 37.6955C39.5878 37.6986 39.6705 37.6796 39.7442 37.6406ZM30.0117 30.5273C27.3281 30.5273 24.8028 29.4785 22.8985 27.5742C21.9615 26.6397 21.2187 25.529 20.7129 24.3062C20.2071 23.0834 19.9482 21.7725 19.9512 20.4492C19.9512 17.7598 21 15.2285 22.8985 13.3242C24.7969 11.4199 27.3223 10.3711 30.0117 10.3711C32.7012 10.3711 35.2207 11.4199 37.125 13.3242C38.062 14.2587 38.8047 15.3694 39.3106 16.5922C39.8164 17.8151 40.0753 19.1259 40.0723 20.4492C40.0723 23.1387 39.0235 25.6699 37.125 27.5742C35.2207 29.4785 32.6953 30.5273 30.0117 30.5273ZM51.5625 44.4727H46.6406V39.5508C46.6406 39.293 46.4297 39.082 46.1719 39.082H42.8906C42.6328 39.082 42.4219 39.293 42.4219 39.5508V44.4727H37.5C37.2422 44.4727 37.0313 44.6836 37.0313 44.9414V48.2227C37.0313 48.4805 37.2422 48.6914 37.5 48.6914H42.4219V53.6133C42.4219 53.8711 42.6328 54.082 42.8906 54.082H46.1719C46.4297 54.082 46.6406 53.8711 46.6406 53.6133V48.6914H51.5625C51.8203 48.6914 52.0313 48.4805 52.0313 48.2227V44.9414C52.0313 44.6836 51.8203 44.4727 51.5625 44.4727Z" fill="#061A48"/>
</g>
</svg>
